<?xml version="1.0" standalone="no"?>
<!DOCTYPE svg PUBLIC "-//W3C//DTD SVG 20010904//EN"
 "http://www.w3.org/TR/2001/REC-SVG-20010904/DTD/svg10.dtd">
<svg version="1.0" xmlns="http://www.w3.org/2000/svg"
 width="528.000000pt" height="528.000000pt" viewBox="0 0 528.000000 528.000000"
 preserveAspectRatio="xMidYMid meet">
<metadata>
Created by potrace 1.14, written by Peter Selinger 2001-2017
</metadata>
<g transform="translate(0.000000,528.000000) scale(0.100000,-0.100000)"
fill="#000000" stroke="none">
<path d="M2616 4936 c-20 -18 -36 -41 -36 -50 0 -11 -5 -14 -12 -10 -8 5 -9 2
-5 -10 4 -10 3 -15 -3 -11 -9 6 -14 -8 -11 -27 0 -5 -4 -8 -10 -8 -5 0 -7 -4
-4 -10 4 -6 -1 -7 -11 -3 -12 4 -15 3 -10 -5 8 -13 -32 -92 -46 -92 -5 0 -6
-5 -2 -12 5 -7 3 -8 -6 -3 -10 6 -12 4 -6 -10 5 -15 4 -16 -8 -6 -11 9 -16 9
-22 0 -4 -7 -3 -9 3 -6 24 15 19 -22 -5 -49 -15 -16 -29 -38 -30 -49 -2 -11
-8 -23 -14 -26 -5 -3 -10 -13 -12 -21 -3 -25 -26 -47 -42 -41 -10 4 -12 0 -8
-11 3 -9 11 -13 17 -9 6 3 7 1 3 -5 -4 -7 -14 -12 -22 -12 -8 0 -14 -5 -14
-11 0 -5 6 -7 13 -4 6 4 2 -2 -10 -13 -12 -11 -19 -22 -16 -26 4 -3 -1 -6 -10
-6 -11 0 -14 -5 -10 -17 4 -10 2 -14 -4 -10 -6 4 -13 0 -16 -8 -4 -9 -1 -12 9
-8 9 3 4 -7 -10 -22 -14 -15 -23 -31 -20 -36 3 -5 -2 -6 -11 -3 -14 6 -14 8 0
24 12 14 13 20 4 26 -7 4 -10 3 -5 -4 3 -6 -4 -18 -16 -26 -12 -9 -17 -16 -10
-16 7 0 11 -4 7 -9 -3 -5 0 -13 6 -17 8 -5 9 -3 4 6 -6 9 -4 11 4 6 9 -6 9
-12 -3 -25 -9 -10 -13 -21 -9 -26 5 -4 2 -5 -5 -1 -7 5 -11 15 -8 23 3 8 2 11
-4 8 -5 -3 -7 -18 -5 -33 2 -17 -5 -38 -16 -53 -18 -21 -19 -22 -17 -4 2 11
10 23 17 26 11 4 10 7 -6 11 -18 5 -20 1 -18 -38 1 -27 -2 -41 -8 -37 -6 4 -8
-1 -4 -11 5 -13 3 -17 -5 -13 -7 2 -22 1 -32 -3 -19 -6 -19 -7 2 -12 14 -4 20
-2 15 4 -3 7 -1 8 5 4 9 -5 9 -12 0 -26 -7 -10 -14 -18 -17 -18 -19 2 -24 -4
-11 -12 13 -8 13 -10 -2 -10 -11 0 -15 -5 -12 -14 6 -17 -24 -49 -38 -40 -7 4
-8 2 -4 -5 4 -6 12 -8 18 -5 6 4 3 -7 -8 -25 -10 -17 -22 -31 -27 -31 -4 0 -5
-4 -2 -10 3 -5 1 -10 -4 -10 -6 0 -11 5 -11 12 0 6 -3 8 -6 5 -4 -4 -2 -12 4
-20 18 -21 -1 -41 -26 -28 -14 7 -23 8 -27 1 -4 -6 -3 -10 2 -9 37 6 43 -16
13 -51 -11 -12 -17 -26 -14 -31 3 -5 -3 -6 -12 -2 -11 4 -15 3 -10 -5 3 -6 1
-14 -5 -18 -8 -5 -9 -3 -4 7 7 12 5 12 -6 1 -12 -11 -12 -14 1 -23 12 -9 10
-10 -7 -6 -14 3 -21 0 -20 -7 1 -6 -4 -10 -10 -9 -7 2 -13 -2 -13 -7 0 -14 13
-13 28 2 21 21 13 -7 -11 -40 -13 -17 -27 -28 -31 -24 -5 4 -7 0 -6 -8 5 -31
-1 -40 -22 -41 -13 0 -17 -3 -10 -6 6 -2 12 -11 12 -18 0 -15 -27 -27 -43 -19
-7 3 -4 -1 6 -9 16 -14 16 -15 -5 -22 -13 -4 -26 -7 -30 -6 -5 1 -8 -3 -8 -9
0 -13 13 -13 27 1 8 8 13 7 18 -3 5 -7 5 -10 1 -6 -12 10 -34 -15 -28 -31 3
-8 1 -12 -5 -8 -6 4 -14 -4 -17 -18 -4 -14 -11 -25 -17 -25 -6 0 -7 -5 -3 -12
5 -7 3 -8 -6 -3 -8 5 -11 3 -8 -6 3 -8 -4 -27 -16 -44 -11 -16 -21 -32 -21
-35 0 -3 -6 -14 -12 -25 -10 -17 -13 -17 -30 -5 -17 14 -17 14 0 -6 18 -22 14
-36 -9 -27 -8 3 -14 0 -14 -6 0 -6 5 -11 11 -11 5 0 7 -5 4 -10 -5 -8 -11 -7
-21 1 -13 10 -13 8 -4 -17 10 -28 9 -28 -6 -9 -15 19 -15 19 -8 -9 4 -19 3
-27 -3 -23 -6 4 -14 0 -17 -9 -4 -10 -2 -13 7 -9 6 4 3 -1 -8 -9 -11 -9 -25
-14 -33 -11 -7 3 -10 0 -7 -6 4 -6 14 -8 24 -5 13 5 12 3 -3 -8 -10 -8 -15
-19 -11 -25 3 -6 1 -11 -4 -11 -6 0 -11 5 -11 12 0 6 -3 8 -6 5 -4 -4 -2 -13
5 -20 9 -11 8 -17 -4 -27 -8 -7 -12 -16 -10 -21 3 -4 -1 -11 -9 -16 -7 -4 -23
-28 -34 -53 -12 -25 -21 -40 -22 -33 0 6 -9 11 -19 10 -11 0 -17 -5 -15 -9 3
-5 10 -6 15 -3 10 7 12 -6 3 -29 -3 -9 -11 -16 -16 -16 -6 0 -7 8 -3 18 5 13
4 14 -6 5 -9 -9 -9 -16 -1 -26 8 -10 6 -21 -9 -46 -10 -17 -24 -29 -29 -26 -6
3 -10 1 -10 -5 0 -6 -4 -8 -10 -5 -5 3 -10 1 -10 -5 0 -7 7 -10 15 -6 8 3 15
1 15 -4 0 -6 -5 -10 -11 -10 -5 0 -7 -4 -4 -10 3 -5 -1 -10 -10 -10 -10 0 -13
5 -9 12 5 7 3 8 -5 3 -9 -5 -10 -10 -2 -18 16 -16 14 -27 -5 -27 -9 0 -12 5
-8 12 4 7 3 8 -5 4 -9 -6 -9 -11 1 -24 10 -11 10 -16 1 -19 -7 -2 -10 -10 -7
-18 3 -7 1 -16 -5 -20 -6 -3 -9 0 -5 8 3 8 -3 20 -12 28 -16 12 -17 12 -9 -1
5 -8 9 -26 9 -40 0 -20 -5 -25 -24 -24 -22 1 -22 0 -5 -13 11 -7 13 -13 6 -13
-7 0 -10 -4 -7 -8 2 -4 0 -14 -6 -22 -8 -13 -9 -13 -5 1 3 9 -1 16 -8 16 -7 0
-10 -8 -8 -17 6 -21 -51 -130 -80 -153 -12 -10 -17 -16 -11 -13 6 3 11 -1 11
-8 0 -8 -7 -12 -15 -8 -10 3 -13 1 -9 -5 4 -6 1 -17 -6 -25 -8 -7 -13 -21 -11
-31 1 -9 -2 -15 -7 -11 -11 6 -29 -37 -21 -50 3 -5 0 -6 -6 -2 -7 4 -12 1 -12
-8 0 -19 -11 -21 -27 -5 -8 8 -13 7 -18 -2 -5 -7 -4 -10 2 -6 6 4 17 -1 24
-10 12 -15 12 -16 -5 -10 -17 7 -17 6 -5 -10 12 -15 12 -16 -5 -10 -16 6 -17
5 -6 -8 10 -12 10 -15 0 -15 -8 0 -10 -3 -7 -7 4 -3 -4 -21 -18 -38 -13 -18
-21 -36 -17 -39 3 -4 -2 -4 -11 0 -13 5 -15 10 -8 17 6 6 11 15 11 21 0 5 -6
1 -14 -10 -8 -11 -11 -23 -6 -29 12 -14 6 -48 -8 -53 -7 -2 -9 -9 -6 -14 5 -7
2 -8 -6 -3 -10 6 -12 4 -7 -8 3 -10 2 -17 -3 -17 -6 0 -10 -7 -10 -15 0 -8 -5
-15 -11 -15 -5 0 -8 -4 -4 -9 3 -6 -3 -14 -12 -20 -10 -5 -17 -11 -15 -13 7
-7 -11 -37 -19 -32 -5 3 -9 0 -9 -5 0 -6 6 -11 13 -11 8 0 7 -3 -3 -10 -8 -5
-15 -13 -15 -17 -1 -9 -36 -65 -46 -73 -3 -3 -10 -15 -13 -28 -6 -19 -13 -22
-37 -18 -16 2 -27 0 -23 -5 3 -5 9 -7 13 -5 4 3 13 1 21 -5 10 -6 11 -9 3 -9
-7 0 -13 -7 -13 -15 0 -18 -11 -19 -30 -2 -8 6 -6 2 4 -11 11 -12 14 -22 8
-22 -20 0 -27 5 -24 15 2 5 0 6 -4 2 -4 -4 -9 -22 -10 -39 -2 -22 0 -28 6 -18
5 8 6 18 4 22 -3 4 2 5 10 2 14 -5 14 -8 1 -21 -8 -8 -15 -19 -15 -24 0 -6 -4
-7 -10 -4 -6 4 -9 -4 -7 -17 1 -16 -3 -23 -15 -22 -15 1 -15 -2 2 -31 10 -18
16 -35 13 -38 -2 -3 7 -4 21 -3 14 2 26 -1 26 -6 0 -5 4 -7 8 -4 5 3 14 -4 22
-14 8 -10 17 -17 22 -14 4 3 8 -2 8 -11 0 -11 5 -15 14 -12 8 3 20 -1 26 -9 7
-8 19 -14 27 -14 9 0 11 -5 7 -12 -6 -10 -5 -10 7 -1 12 10 18 9 29 -6 7 -11
20 -17 28 -13 11 4 14 1 9 -11 -3 -9 -1 -19 5 -23 7 -4 8 -3 4 4 -4 7 -5 12
-1 12 13 0 95 -43 106 -56 6 -8 18 -14 27 -14 8 0 25 -11 37 -24 13 -14 26
-22 29 -19 3 4 6 1 6 -6 0 -7 4 -9 10 -6 6 3 10 1 10 -4 0 -6 3 -10 8 -10 20
3 25 -2 12 -12 -12 -8 -10 -9 8 -4 12 3 22 3 22 -2 0 -5 20 -17 45 -28 25 -11
43 -25 40 -32 -2 -7 2 -10 11 -6 7 3 14 0 14 -7 0 -6 5 -8 10 -5 6 3 10 1 10
-5 0 -6 4 -8 10 -5 5 3 10 1 10 -5 0 -6 4 -8 10 -5 5 3 10 2 10 -3 0 -6 11
-13 25 -16 17 -4 23 -11 19 -24 -5 -14 -4 -15 5 -2 9 13 12 12 26 -5 9 -11 13
-14 10 -7 -4 8 12 2 35 -13 23 -14 47 -24 53 -22 7 2 18 -3 25 -12 8 -9 11
-11 8 -5 -3 6 1 11 9 11 8 0 14 -3 13 -6 -2 -22 5 -31 22 -31 11 0 20 -4 20
-8 0 -15 37 -52 44 -45 3 3 6 -1 6 -11 0 -9 5 -14 10 -11 6 3 10 0 10 -7 0 -7
11 -22 25 -32 15 -12 24 -25 20 -34 -4 -11 -2 -12 7 -4 14 11 43 -10 31 -22
-4 -3 1 -6 10 -6 8 0 25 -12 36 -26 12 -15 21 -23 21 -19 0 4 14 -6 30 -23 17
-18 30 -30 30 -27 0 3 9 -3 19 -12 11 -9 18 -20 15 -25 -3 -5 0 -7 8 -6 7 2
12 -3 10 -10 -1 -8 2 -11 7 -8 5 4 14 -1 19 -10 5 -9 12 -15 15 -15 22 3 28
-1 23 -15 -3 -8 -2 -12 4 -9 17 10 34 -6 19 -17 -10 -7 -8 -8 7 -4 14 4 31 -3
55 -24 19 -16 39 -34 46 -40 7 -5 15 -10 18 -10 4 0 12 -6 20 -13 30 -28 56
-47 66 -47 5 0 8 -4 5 -8 -3 -5 0 -9 7 -9 7 0 19 -3 27 -7 11 -4 21 6 35 35
10 23 25 44 32 46 7 3 13 11 13 18 0 7 11 29 25 49 13 20 22 36 20 36 -3 0 17
36 45 80 27 44 49 81 49 83 -2 8 26 57 33 57 5 0 7 4 4 9 -3 5 1 14 9 21 8 7
12 16 9 21 -3 5 0 9 5 9 6 0 10 3 9 8 -2 9 13 45 22 52 3 3 16 25 28 50 24 51
54 103 63 110 4 3 10 16 14 30 4 14 15 36 24 50 9 14 22 38 29 53 7 17 17 25
24 21 7 -4 8 -3 4 4 -4 6 11 43 34 83 22 39 40 75 40 80 0 5 5 9 10 9 6 0 10
7 10 15 0 8 5 15 11 15 5 0 8 4 4 9 -3 6 3 14 12 20 10 5 17 13 16 18 0 4 3 7
9 5 5 -1 7 2 3 8 -4 6 5 26 19 44 14 19 23 36 20 38 -2 3 2 11 11 18 8 7 15
18 15 25 0 7 7 15 15 19 8 3 14 9 14 13 -4 17 14 43 25 36 6 -3 8 -2 3 2 -4 5
0 19 8 32 9 13 13 23 10 23 -3 0 3 10 14 22 11 11 18 24 16 28 -3 4 4 18 15
30 19 22 24 35 21 53 0 4 3 7 9 7 5 0 10 7 10 15 0 8 5 15 10 15 6 0 9 3 9 7
-3 14 25 73 34 73 4 0 5 5 2 10 -3 6 -2 10 3 10 5 0 12 13 15 29 3 16 14 37
24 47 10 9 17 20 15 23 -3 8 61 135 71 139 4 2 5 8 1 13 -3 5 0 9 6 9 6 0 8 5
5 10 -3 6 -1 10 5 10 6 0 9 4 5 9 -3 6 1 13 9 18 8 4 15 12 15 16 0 19 66 125
75 120 5 -3 6 -2 3 4 -4 5 14 38 38 71 25 34 42 62 38 62 -5 0 -3 4 3 8 12 7
64 87 86 132 7 14 15 27 18 30 8 8 29 42 52 88 12 23 26 42 30 42 4 0 8 6 8
14 0 8 6 21 13 28 12 12 23 34 26 51 0 4 10 17 21 29 11 12 20 28 20 35 0 7 5
13 11 13 5 0 8 4 5 8 -3 5 4 18 14 30 11 12 20 24 20 28 0 4 21 41 47 83 68
108 83 134 89 154 4 9 10 17 15 17 5 0 9 9 9 20 0 11 4 20 8 20 5 0 15 12 23
28 8 15 16 29 19 32 6 6 29 46 48 83 7 15 18 27 23 27 5 0 8 3 7 8 -3 15 15
42 25 35 5 -3 8 -2 4 3 -8 13 38 86 48 76 4 -4 5 -1 1 6 -4 7 2 25 13 41 12
16 21 34 21 40 0 5 7 14 16 19 9 5 15 11 14 13 -4 10 24 58 31 53 13 -8 -3 29
-20 46 -16 16 -43 33 -78 49 -13 6 -23 18 -23 28 0 15 -2 16 -10 3 -5 -8 -10
-10 -10 -4 0 7 -9 14 -21 17 -14 4 -18 10 -13 19 4 7 4 10 -1 6 -4 -4 -21 0
-38 8 -23 13 -27 18 -16 25 10 7 7 8 -11 7 -16 -2 -24 2 -23 10 2 6 -6 12 -17
12 -11 0 -20 7 -20 15 0 8 -6 15 -13 15 -16 0 -48 36 -39 45 4 3 -1 3 -10 0
-8 -3 -22 1 -31 9 -9 9 -20 16 -24 16 -5 0 -18 8 -29 18 -11 9 -29 22 -40 29
-10 6 -18 17 -16 24 2 9 -2 9 -14 -2 -12 -9 -15 -10 -10 -1 4 7 0 14 -11 18
-10 4 -29 19 -43 33 -14 15 -20 20 -15 12 6 -8 -12 3 -40 24 -27 21 -49 42
-47 47 1 5 -2 6 -9 3 -11 -7 -49 27 -49 43 0 5 -8 16 -17 23 -17 13 -17 13 -3
-5 13 -17 13 -18 -5 -14 -11 2 -19 10 -18 16 2 7 0 11 -5 11 -21 -4 -32 3 -33
19 0 10 -3 12 -6 5 -3 -10 -9 -9 -20 3 -13 13 -17 13 -24 2 -7 -10 -9 -9 -9 4
0 10 -10 20 -25 24 -14 3 -22 10 -19 16 3 5 0 8 -7 7 -18 -3 -69 18 -69 29 0
4 -16 14 -35 21 -19 7 -35 17 -35 22 0 5 -7 9 -15 9 -8 0 -15 5 -15 11 0 5 -4
8 -8 5 -5 -3 -25 6 -46 20 -27 18 -36 31 -31 42 5 14 4 15 -6 5 -18 -18 -29
-16 -29 5 0 10 -3 13 -8 7 -4 -6 -13 -10 -19 -9 -7 1 -18 2 -24 3 -6 0 -8 8
-5 16 5 14 3 14 -16 1 -14 -10 -27 -12 -38 -6 -10 5 -20 6 -24 3 -3 -3 -6 1
-6 11 0 11 5 15 13 10 6 -4 8 -3 4 1 -13 15 -36 14 -30 -1 4 -10 0 -12 -11 -8
-9 3 -13 11 -9 17 4 6 0 8 -10 4 -8 -3 -21 1 -27 9 -7 8 -19 14 -27 14 -9 0
-13 6 -10 14 4 9 0 12 -13 9 -16 -4 -61 25 -137 87 -7 6 -17 10 -23 10 -6 0
-8 6 -4 13 5 9 4 9 -6 0 -18 -17 -44 -5 -29 13 21 26 1 14 -35 -20z"/>
<path d="M2556 4898 c3 -5 10 -6 15 -3 13 9 11 12 -6 12 -8 0 -12 -4 -9 -9z"/>
<path d="M2515 4880 c3 -5 8 -10 11 -10 2 0 4 5 4 10 0 6 -5 10 -11 10 -5 0
-7 -4 -4 -10z"/>
<path d="M2815 4860 c-3 -5 -1 -10 4 -10 6 0 11 5 11 10 0 6 -2 10 -4 10 -3 0
-8 -4 -11 -10z"/>
<path d="M2487 4801 c6 -7 9 -20 6 -27 -3 -8 -3 -14 0 -14 14 0 14 30 -1 41
-14 11 -15 11 -5 0z"/>
<path d="M3079 4753 c-13 -16 -12 -17 4 -4 16 13 21 21 13 21 -2 0 -10 -8 -17
-17z"/>
<path d="M2467 4745 c3 -8 9 -12 14 -9 12 7 11 11 -5 17 -10 4 -13 1 -9 -8z"/>
<path d="M2439 4713 c-13 -16 -12 -17 4 -4 9 7 17 15 17 17 0 8 -8 3 -21 -13z"/>
<path d="M2403 4643 c0 -8 6 -9 19 -2 10 5 18 11 18 12 0 2 -8 3 -18 3 -10 0
-19 -6 -19 -13z"/>
<path d="M3270 4656 c0 -2 8 -10 18 -17 15 -13 16 -12 3 4 -13 16 -21 21 -21
13z"/>
<path d="M2376 4622 c-3 -5 1 -9 9 -9 8 0 12 4 9 9 -3 4 -7 8 -9 8 -2 0 -6 -4
-9 -8z"/>
<path d="M2371 4593 c3 -18 -1 -34 -9 -29 -4 2 -9 -5 -9 -17 -2 -18 0 -19 8
-7 25 38 29 49 19 55 -6 4 -10 3 -9 -2z"/>
<path d="M2327 4519 c7 -9 9 -20 5 -25 -4 -4 1 -2 11 5 9 7 17 16 17 19 0 3
-3 2 -7 -1 -3 -4 -13 -1 -22 6 -14 10 -14 10 -4 -4z"/>
<path d="M2276 4432 c-3 -5 1 -9 9 -9 8 0 12 4 9 9 -3 4 -7 8 -9 8 -2 0 -6 -4
-9 -8z"/>
<path d="M2147 4219 c7 -7 15 -10 18 -7 3 3 -2 9 -12 12 -14 6 -15 5 -6 -5z"/>
<path d="M2040 4000 c-9 -6 -10 -10 -3 -10 6 0 15 5 18 10 8 12 4 12 -15 0z"/>
<path d="M2002 3935 c-7 -8 -9 -15 -4 -15 5 0 15 7 22 15 16 19 -1 19 -18 0z"/>
<path d="M1967 3879 c7 -7 15 -10 18 -7 3 3 -2 9 -12 12 -14 6 -15 5 -6 -5z"/>
<path d="M1935 3831 c-3 -5 0 -13 6 -17 7 -4 9 -3 5 4 -3 5 0 13 6 15 9 4 10
6 1 6 -6 1 -14 -3 -18 -8z"/>
<path d="M1894 3790 c0 -13 4 -16 10 -10 7 7 7 13 0 20 -6 6 -10 3 -10 -10z"/>
<path d="M1814 3662 c4 -3 14 -7 22 -8 9 -1 13 0 10 4 -4 3 -14 7 -22 8 -9 1
-13 0 -10 -4z"/>
<path d="M1813 3615 c0 -8 4 -12 9 -9 5 3 6 10 3 15 -9 13 -12 11 -12 -6z"/>
<path d="M1775 3560 c3 -5 8 -10 11 -10 2 0 4 5 4 10 0 6 -5 10 -11 10 -5 0
-7 -4 -4 -10z"/>
<path d="M1702 3484 c10 -10 20 -16 22 -13 3 3 -5 11 -17 18 -21 13 -21 12 -5
-5z"/>
<path d="M1703 3441 c0 -11 5 -18 9 -15 4 3 5 11 1 19 -7 21 -12 19 -10 -4z"/>
<path d="M1674 3420 c0 -13 4 -16 10 -10 7 7 7 13 0 20 -6 6 -10 3 -10 -10z"/>
<path d="M1670 3380 c0 -5 5 -10 11 -10 5 0 7 5 4 10 -3 6 -8 10 -11 10 -2 0
-4 -4 -4 -10z"/>
<path d="M1650 3360 c0 -5 5 -10 11 -10 5 0 7 5 4 10 -3 6 -8 10 -11 10 -2 0
-4 -4 -4 -10z"/>
<path d="M1633 3335 c0 -7 6 -11 14 -8 7 3 13 6 13 8 0 2 -6 5 -13 8 -8 3 -14
-1 -14 -8z"/>
<path d="M1626 3298 c3 -5 10 -6 15 -3 13 9 11 12 -6 12 -8 0 -12 -4 -9 -9z"/>
<path d="M1526 3178 c3 -5 10 -6 15 -3 13 9 11 12 -6 12 -8 0 -12 -4 -9 -9z"/>
<path d="M1469 3042 c-18 -15 -20 -20 -8 -27 8 -5 11 -5 7 0 -4 4 3 16 15 26
12 10 19 18 16 19 -4 0 -17 -8 -30 -18z"/>
<path d="M1425 2971 c4 -8 2 -17 -6 -22 -9 -6 -10 -9 -2 -9 19 0 27 21 13 33
-10 9 -11 9 -5 -2z"/>
<path d="M1310 2856 c0 -2 8 -10 18 -17 15 -13 16 -12 3 4 -13 16 -21 21 -21
13z"/>
<path d="M1356 2849 c3 -5 0 -18 -6 -29 -6 -11 -8 -20 -6 -20 3 0 12 13 20 28
13 24 13 29 1 29 -8 0 -12 -4 -9 -8z"/>
<path d="M1270 2786 c0 -2 7 -7 16 -10 8 -3 12 -2 9 4 -6 10 -25 14 -25 6z"/>
<path d="M1220 2641 c0 -5 7 -12 16 -15 14 -5 15 -4 4 9 -14 17 -20 19 -20 6z"/>
<path d="M1173 2543 c4 -3 -1 -16 -10 -27 -18 -21 -18 -21 5 -2 24 21 29 36
10 36 -6 0 -8 -3 -5 -7z"/>
<path d="M1105 2479 c-3 -4 2 -6 10 -5 21 3 28 13 10 13 -9 0 -18 -4 -20 -8z"/>
<path d="M1140 2462 c-21 -42 -21 -42 -16 -42 6 0 37 62 33 67 -2 1 -10 -9
-17 -25z"/>
<path d="M1096 2423 c-6 -14 -5 -15 5 -6 7 7 10 15 7 18 -3 3 -9 -2 -12 -12z"/>
<path d="M1039 2313 c-13 -17 -13 -17 6 -3 11 8 22 16 24 17 2 2 0 3 -6 3 -6
0 -17 -8 -24 -17z"/>
<path d="M964 2162 c3 -5 0 -12 -6 -15 -7 -2 -10 -7 -7 -11 3 -4 12 0 18 8 9
11 9 16 0 22 -7 4 -9 3 -5 -4z"/>
<path d="M897 2049 c7 -7 15 -10 18 -7 3 3 -2 9 -12 12 -14 6 -15 5 -6 -5z"/>
<path d="M856 1995 c-3 -8 0 -17 6 -21 6 -4 8 -3 4 4 -3 5 -1 12 6 14 8 3 9 6
1 11 -6 4 -13 0 -17 -8z"/>
<path d="M837 1957 c-3 -8 1 -14 8 -14 7 0 11 6 8 14 -3 7 -6 13 -8 13 -2 0
-5 -6 -8 -13z"/>
<path d="M795 1921 c-3 -5 -2 -12 3 -15 5 -3 9 1 9 9 0 17 -3 19 -12 6z"/>
<path d="M823 1915 c0 -8 4 -12 9 -9 5 3 6 10 3 15 -9 13 -12 11 -12 -6z"/>
<path d="M750 1843 c0 -6 6 -16 14 -22 10 -8 16 -8 25 3 9 10 9 16 1 21 -6 4
-14 4 -17 1 -4 -3 -1 -6 6 -6 7 0 9 -5 5 -12 -5 -7 -11 -5 -21 7 -7 11 -13 14
-13 8z"/>
<path d="M752 1799 c2 -7 -2 -13 -9 -14 -6 0 -14 -3 -18 -7 -4 -3 0 -5 9 -4
24 3 40 22 27 31 -7 3 -10 1 -9 -6z"/>
<path d="M725 1749 c-4 -6 -5 -12 -2 -15 2 -3 7 2 10 11 7 17 1 20 -8 4z"/>
<path d="M621 1594 c0 -11 3 -14 6 -6 3 7 2 16 -1 19 -3 4 -6 -2 -5 -13z"/>
</g>
</svg>
